<svg width="1163" height="48" viewBox="0 0 1163 48" fill="none" xmlns="http://www.w3.org/2000/svg">
<path d="M8.704 6.704V8.496H5.584V18H3.328V8.496H0.224V6.704H8.704ZM12.2019 10.832C12.5325 10.2667 12.9699 9.824 13.5139 9.504C14.0579 9.17333 14.6659 9.008 15.3379 9.008V11.424H14.6819C13.0285 11.424 12.2019 12.192 12.2019 13.728V18H9.94588V9.136H12.2019V10.832ZM25.0665 9.136V18H22.8105V16.208C22.5758 16.8053 22.1865 17.2747 21.6425 17.616C21.1092 17.9467 20.4905 18.112 19.7865 18.112C18.7625 18.112 17.9465 17.776 17.3385 17.104C16.7305 16.432 16.4265 15.4933 16.4265 14.288V9.136H18.6665V14.032C18.6665 14.736 18.8478 15.2853 19.2105 15.68C19.5732 16.064 20.0638 16.256 20.6825 16.256C21.3332 16.256 21.8505 16.048 22.2345 15.632C22.6185 15.216 22.8105 14.6187 22.8105 13.84V9.136H25.0665ZM30.1738 9.024C31.2511 9.024 32.1151 9.296 32.7658 9.84C33.4164 10.384 33.8218 11.1093 33.9818 12.016H31.8698C31.7844 11.5893 31.5924 11.248 31.2938 10.992C30.9951 10.736 30.6058 10.608 30.1258 10.608C29.7418 10.608 29.4431 10.6987 29.2298 10.88C29.0164 11.0613 28.9098 11.3067 28.9098 11.616C28.9098 11.8613 28.9951 12.0587 29.1658 12.208C29.3364 12.3573 29.5498 12.4747 29.8058 12.56C30.0618 12.6453 30.4298 12.7467 30.9098 12.864C31.5818 13.0133 32.1258 13.1733 32.5418 13.344C32.9684 13.504 33.3311 13.7653 33.6298 14.128C33.9391 14.48 34.0938 14.96 34.0938 15.568C34.0938 16.3253 33.7951 16.9387 33.1978 17.408C32.6111 17.8773 31.8164 18.112 30.8138 18.112C29.6618 18.112 28.7391 17.856 28.0458 17.344C27.3524 16.8213 26.9311 16.08 26.7818 15.12H28.9418C28.9951 15.5573 29.1871 15.904 29.5178 16.16C29.8484 16.4053 30.2804 16.528 30.8138 16.528C31.1978 16.528 31.4911 16.4373 31.6938 16.256C31.8964 16.064 31.9978 15.8187 31.9978 15.52C31.9978 15.264 31.9071 15.056 31.7258 14.896C31.5551 14.736 31.3364 14.6133 31.0698 14.528C30.8138 14.4427 30.4458 14.3413 29.9658 14.224C29.3044 14.0747 28.7658 13.9253 28.3498 13.776C27.9444 13.616 27.5924 13.3653 27.2938 13.024C27.0058 12.6827 26.8618 12.2133 26.8618 11.616C26.8618 10.848 27.1551 10.224 27.7418 9.744C28.3284 9.264 29.1391 9.024 30.1738 9.024ZM40.51 16.064V18H39.326C38.334 18 37.5713 17.76 37.038 17.28C36.5153 16.8 36.254 16 36.254 14.88V11.04H35.022V9.136H36.254V6.944H38.51V9.136H40.494V11.04H38.51V14.912C38.51 15.3387 38.5953 15.6373 38.766 15.808C38.9367 15.9787 39.2247 16.064 39.63 16.064H40.51ZM50.4694 13.232C50.4694 13.456 50.4427 13.712 50.3894 14H43.8934C43.9254 14.7893 44.1387 15.3707 44.5334 15.744C44.928 16.1173 45.4187 16.304 46.0054 16.304C46.528 16.304 46.96 16.176 47.3014 15.92C47.6534 15.664 47.8774 15.3173 47.9734 14.88H50.3574C50.24 15.4987 49.9894 16.0533 49.6054 16.544C49.2214 17.0347 48.7254 17.4187 48.1174 17.696C47.52 17.9733 46.8534 18.112 46.1174 18.112C45.2534 18.112 44.4854 17.9307 43.8134 17.568C43.1414 17.1947 42.6187 16.6667 42.2454 15.984C41.872 15.3013 41.6854 14.496 41.6854 13.568C41.6854 12.64 41.872 11.8347 42.2454 11.152C42.6187 10.4587 43.1414 9.93067 43.8134 9.568C44.4854 9.20533 45.2534 9.024 46.1174 9.024C46.992 9.024 47.7547 9.20533 48.4054 9.568C49.0667 9.93067 49.5734 10.432 49.9254 11.072C50.288 11.7013 50.4694 12.4213 50.4694 13.232ZM48.1974 13.008C48.2294 12.2827 48.0374 11.7333 47.6214 11.36C47.216 10.9867 46.7147 10.8 46.1174 10.8C45.5094 10.8 44.9974 10.9867 44.5814 11.36C44.1654 11.7333 43.936 12.2827 43.8934 13.008H48.1974ZM55.5429 9.024C56.2895 9.024 56.9242 9.2 57.4469 9.552C57.9802 9.904 58.3642 10.3787 58.5989 10.976V6.16H60.8389V18H58.5989V16.144C58.3642 16.7413 57.9802 17.2213 57.4469 17.584C56.9242 17.936 56.2895 18.112 55.5429 18.112C54.7962 18.112 54.1242 17.9307 53.5269 17.568C52.9295 17.2053 52.4602 16.6827 52.1189 16C51.7882 15.3067 51.6229 14.496 51.6229 13.568C51.6229 12.64 51.7882 11.8347 52.1189 11.152C52.4602 10.4587 52.9295 9.93067 53.5269 9.568C54.1242 9.20533 54.7962 9.024 55.5429 9.024ZM56.2469 10.992C55.5429 10.992 54.9775 11.2213 54.5509 11.68C54.1242 12.1387 53.9109 12.768 53.9109 13.568C53.9109 14.368 54.1242 14.9973 54.5509 15.456C54.9775 15.904 55.5429 16.128 56.2469 16.128C56.9295 16.128 57.4895 15.8987 57.9269 15.44C58.3749 14.9707 58.5989 14.3467 58.5989 13.568C58.5989 12.7787 58.3749 12.1547 57.9269 11.696C57.4895 11.2267 56.9295 10.992 56.2469 10.992ZM71.6638 9.024C72.4104 9.024 73.0824 9.20533 73.6798 9.568C74.2771 9.93067 74.7411 10.4587 75.0718 11.152C75.4131 11.8347 75.5838 12.64 75.5838 13.568C75.5838 14.496 75.4131 15.3067 75.0718 16C74.7411 16.6827 74.2771 17.2053 73.6798 17.568C73.0824 17.9307 72.4104 18.112 71.6638 18.112C70.9171 18.112 70.2771 17.936 69.7438 17.584C69.2211 17.2213 68.8478 16.7413 68.6238 16.144V18H66.3678V6.16H68.6238V10.976C68.8478 10.3787 69.2211 9.904 69.7438 9.552C70.2771 9.2 70.9171 9.024 71.6638 9.024ZM70.9598 10.992C70.2771 10.992 69.7118 11.2267 69.2638 11.696C68.8264 12.1547 68.6078 12.7787 68.6078 13.568C68.6078 14.3467 68.8264 14.9707 69.2638 15.44C69.7118 15.8987 70.2771 16.128 70.9598 16.128C71.6638 16.128 72.2291 15.904 72.6558 15.456C73.0824 14.9973 73.2958 14.368 73.2958 13.568C73.2958 12.768 73.0824 12.1387 72.6558 11.68C72.2291 11.2213 71.6638 10.992 70.9598 10.992ZM78.7003 9.136L81.1163 15.152L83.3563 9.136H85.8363L80.4123 22.224H77.9163L79.9163 17.744L76.1883 9.136H78.7003ZM6.256 30.592C7.632 30.592 8.77333 30.9333 9.68 31.616C10.5867 32.288 11.168 33.2 11.424 34.352H9.056C8.832 33.84 8.47467 33.4347 7.984 33.136C7.504 32.8267 6.93333 32.672 6.272 32.672C5.62133 32.672 5.04533 32.8213 4.544 33.12C4.04267 33.4187 3.65333 33.8453 3.376 34.4C3.09867 34.9547 2.96 35.6053 2.96 36.352C2.96 37.536 3.27467 38.4587 3.904 39.12C4.544 39.7813 5.41333 40.112 6.512 40.112C7.32267 40.112 8.016 39.872 8.592 39.392C9.17867 38.912 9.55733 38.2453 9.728 37.392H5.904V35.776H11.616V37.952C11.456 38.6987 11.1413 39.3867 10.672 40.016C10.2133 40.6453 9.60533 41.152 8.848 41.536C8.10133 41.9093 7.24267 42.096 6.272 42.096C5.16267 42.096 4.18133 41.856 3.328 41.376C2.48533 40.8853 1.82933 40.208 1.36 39.344C0.901333 38.4693 0.672 37.472 0.672 36.352C0.672 35.232 0.901333 34.24 1.36 33.376C1.82933 32.5013 2.48533 31.8187 3.328 31.328C4.17067 30.8373 5.14667 30.592 6.256 30.592ZM15.5613 30.16V42H13.3053V30.16H15.5613ZM21.6981 33.024C22.5621 33.024 23.3355 33.2053 24.0181 33.568C24.7115 33.9307 25.2555 34.4587 25.6501 35.152C26.0448 35.8347 26.2421 36.64 26.2421 37.568C26.2421 38.496 26.0448 39.3013 25.6501 39.984C25.2555 40.6667 24.7115 41.1947 24.0181 41.568C23.3355 41.9307 22.5621 42.112 21.6981 42.112C20.8341 42.112 20.0555 41.9307 19.3621 41.568C18.6795 41.1947 18.1408 40.6667 17.7461 39.984C17.3515 39.3013 17.1541 38.496 17.1541 37.568C17.1541 36.64 17.3515 35.8347 17.7461 35.152C18.1408 34.4587 18.6795 33.9307 19.3621 33.568C20.0555 33.2053 20.8341 33.024 21.6981 33.024ZM21.6981 34.976C21.0688 34.976 20.5355 35.2 20.0981 35.648C19.6608 36.0853 19.4421 36.7253 19.4421 37.568C19.4421 38.4107 19.6608 39.056 20.0981 39.504C20.5355 39.9413 21.0688 40.16 21.6981 40.16C22.3275 40.16 22.8608 39.9413 23.2981 39.504C23.7355 39.056 23.9541 38.4107 23.9541 37.568C23.9541 36.7253 23.7355 36.0853 23.2981 35.648C22.8608 35.2 22.3275 34.976 21.6981 34.976ZM33.1325 33.024C33.8792 33.024 34.5512 33.2053 35.1485 33.568C35.7458 33.9307 36.2098 34.4587 36.5405 35.152C36.8818 35.8347 37.0525 36.64 37.0525 37.568C37.0525 38.496 36.8818 39.3067 36.5405 40C36.2098 40.6827 35.7458 41.2053 35.1485 41.568C34.5512 41.9307 33.8792 42.112 33.1325 42.112C32.3858 42.112 31.7458 41.936 31.2125 41.584C30.6898 41.2213 30.3165 40.7413 30.0925 40.144V42H27.8365V30.16H30.0925V34.976C30.3165 34.3787 30.6898 33.904 31.2125 33.552C31.7458 33.2 32.3858 33.024 33.1325 33.024ZM32.4285 34.992C31.7458 34.992 31.1805 35.2267 30.7325 35.696C30.2952 36.1547 30.0765 36.7787 30.0765 37.568C30.0765 38.3467 30.2952 38.9707 30.7325 39.44C31.1805 39.8987 31.7458 40.128 32.4285 40.128C33.1325 40.128 33.6978 39.904 34.1245 39.456C34.5512 38.9973 34.7645 38.368 34.7645 37.568C34.7645 36.768 34.5512 36.1387 34.1245 35.68C33.6978 35.2213 33.1325 34.992 32.4285 34.992ZM42.121 33.024C42.8677 33.024 43.5077 33.2 44.041 33.552C44.5743 33.904 44.953 34.3787 45.177 34.976V33.136H47.417V42H45.177V40.144C44.953 40.7413 44.5743 41.2213 44.041 41.584C43.5077 41.936 42.8677 42.112 42.121 42.112C41.3743 42.112 40.7023 41.9307 40.105 41.568C39.5077 41.2053 39.0383 40.6827 38.697 40C38.3663 39.3067 38.201 38.496 38.201 37.568C38.201 36.64 38.3663 35.8347 38.697 35.152C39.0383 34.4587 39.5077 33.9307 40.105 33.568C40.7023 33.2053 41.3743 33.024 42.121 33.024ZM42.825 34.992C42.121 34.992 41.5557 35.2213 41.129 35.68C40.7023 36.1387 40.489 36.768 40.489 37.568C40.489 38.368 40.7023 38.9973 41.129 39.456C41.5557 39.904 42.121 40.128 42.825 40.128C43.5077 40.128 44.0677 39.8987 44.505 39.44C44.953 38.9707 45.177 38.3467 45.177 37.568C45.177 36.7787 44.953 36.1547 44.505 35.696C44.0677 35.2267 43.5077 34.992 42.825 34.992ZM51.7175 30.16V42H49.4615V30.16H51.7175ZM62.3468 30.592C63.7548 30.592 64.9228 30.9547 65.8508 31.68C66.7788 32.4053 67.3921 33.392 67.6908 34.64H65.3228C65.0774 34.032 64.6934 33.552 64.1708 33.2C63.6588 32.848 63.0401 32.672 62.3148 32.672C61.7174 32.672 61.1788 32.8213 60.6988 33.12C60.2188 33.4187 59.8454 33.8453 59.5788 34.4C59.3121 34.9547 59.1788 35.6053 59.1788 36.352C59.1788 37.088 59.3121 37.7333 59.5788 38.288C59.8454 38.8427 60.2188 39.2693 60.6988 39.568C61.1788 39.8667 61.7174 40.016 62.3148 40.016C63.0401 40.016 63.6588 39.84 64.1708 39.488C64.6934 39.136 65.0774 38.656 65.3228 38.048H67.6908C67.3921 39.296 66.7788 40.2827 65.8508 41.008C64.9228 41.7333 63.7548 42.096 62.3468 42.096C61.2694 42.096 60.3148 41.856 59.4828 41.376C58.6614 40.8853 58.0214 40.2027 57.5628 39.328C57.1148 38.4533 56.8908 37.4613 56.8908 36.352C56.8908 35.232 57.1148 34.2347 57.5628 33.36C58.0214 32.4853 58.6614 31.808 59.4828 31.328C60.3041 30.8373 61.2588 30.592 62.3468 30.592ZM73.4794 33.024C74.3434 33.024 75.1167 33.2053 75.7994 33.568C76.4927 33.9307 77.0367 34.4587 77.4314 35.152C77.826 35.8347 78.0234 36.64 78.0234 37.568C78.0234 38.496 77.826 39.3013 77.4314 39.984C77.0367 40.6667 76.4927 41.1947 75.7994 41.568C75.1167 41.9307 74.3434 42.112 73.4794 42.112C72.6154 42.112 71.8367 41.9307 71.1434 41.568C70.4607 41.1947 69.922 40.6667 69.5274 39.984C69.1327 39.3013 68.9354 38.496 68.9354 37.568C68.9354 36.64 69.1327 35.8347 69.5274 35.152C69.922 34.4587 70.4607 33.9307 71.1434 33.568C71.8367 33.2053 72.6154 33.024 73.4794 33.024ZM73.4794 34.976C72.85 34.976 72.3167 35.2 71.8794 35.648C71.442 36.0853 71.2234 36.7253 71.2234 37.568C71.2234 38.4107 71.442 39.056 71.8794 39.504C72.3167 39.9413 72.85 40.16 73.4794 40.16C74.1087 40.16 74.642 39.9413 75.0794 39.504C75.5167 39.056 75.7354 38.4107 75.7354 37.568C75.7354 36.7253 75.5167 36.0853 75.0794 35.648C74.642 35.2 74.1087 34.976 73.4794 34.976ZM90.8978 33.008C91.9751 33.008 92.8231 33.344 93.4418 34.016C94.0711 34.6773 94.3858 35.6213 94.3858 36.848V42H92.1458V37.104C92.1458 36.4213 91.9698 35.8987 91.6178 35.536C91.2764 35.1627 90.8018 34.976 90.1938 34.976C89.5644 34.976 89.0631 35.1733 88.6898 35.568C88.3164 35.9627 88.1298 36.5387 88.1298 37.296V42H85.8898V37.104C85.8898 36.4213 85.7138 35.8987 85.3618 35.536C85.0204 35.1627 84.5458 34.976 83.9378 34.976C83.3084 34.976 82.8071 35.1733 82.4338 35.568C82.0604 35.9627 81.8738 36.5387 81.8738 37.296V42H79.6178V33.136H81.8738V34.816C82.1084 34.24 82.4764 33.7973 82.9778 33.488C83.4898 33.168 84.0818 33.008 84.7538 33.008C85.4684 33.008 86.0871 33.1787 86.6098 33.52C87.1431 33.8613 87.5431 34.352 87.8098 34.992C88.0871 34.384 88.4978 33.904 89.0418 33.552C89.5964 33.1893 90.2151 33.008 90.8978 33.008ZM101.664 33.024C102.41 33.024 103.082 33.2053 103.68 33.568C104.277 33.9307 104.741 34.4587 105.072 35.152C105.413 35.8347 105.584 36.64 105.584 37.568C105.584 38.496 105.413 39.3067 105.072 40C104.741 40.6827 104.277 41.2053 103.68 41.568C103.082 41.9307 102.41 42.112 101.664 42.112C100.917 42.112 100.277 41.936 99.7438 41.584C99.2211 41.2213 98.8478 40.7413 98.6238 40.144V46.224H96.3678V33.136H98.6238V34.976C98.8478 34.3787 99.2211 33.904 99.7438 33.552C100.277 33.2 100.917 33.024 101.664 33.024ZM100.96 34.992C100.277 34.992 99.7118 35.2267 99.2638 35.696C98.8264 36.1547 98.6078 36.7787 98.6078 37.568C98.6078 38.3467 98.8264 38.9707 99.2638 39.44C99.7118 39.8987 100.277 40.128 100.96 40.128C101.664 40.128 102.229 39.904 102.656 39.456C103.082 38.9973 103.296 38.368 103.296 37.568C103.296 36.768 103.082 36.1387 102.656 35.68C102.229 35.2213 101.664 34.992 100.96 34.992ZM110.652 33.024C111.399 33.024 112.039 33.2 112.572 33.552C113.106 33.904 113.484 34.3787 113.708 34.976V33.136H115.948V42H113.708V40.144C113.484 40.7413 113.106 41.2213 112.572 41.584C112.039 41.936 111.399 42.112 110.652 42.112C109.906 42.112 109.234 41.9307 108.636 41.568C108.039 41.2053 107.57 40.6827 107.228 40C106.898 39.3067 106.732 38.496 106.732 37.568C106.732 36.64 106.898 35.8347 107.228 35.152C107.57 34.4587 108.039 33.9307 108.636 33.568C109.234 33.2053 109.906 33.024 110.652 33.024ZM111.356 34.992C110.652 34.992 110.087 35.2213 109.66 35.68C109.234 36.1387 109.02 36.768 109.02 37.568C109.02 38.368 109.234 38.9973 109.66 39.456C110.087 39.904 110.652 40.128 111.356 40.128C112.039 40.128 112.599 39.8987 113.036 39.44C113.484 38.9707 113.708 38.3467 113.708 37.568C113.708 36.7787 113.484 36.1547 113.036 35.696C112.599 35.2267 112.039 34.992 111.356 34.992ZM123.273 33.008C124.297 33.008 125.113 33.344 125.721 34.016C126.329 34.688 126.633 35.632 126.633 36.848V42H124.393V37.104C124.393 36.4 124.211 35.856 123.849 35.472C123.486 35.0773 122.99 34.88 122.361 34.88C121.721 34.88 121.209 35.088 120.825 35.504C120.441 35.92 120.249 36.5173 120.249 37.296V42H117.993V33.136H120.249V34.912C120.483 34.3147 120.867 33.8507 121.401 33.52C121.945 33.1787 122.569 33.008 123.273 33.008ZM128.362 30.592C128.362 30.2293 128.49 29.936 128.746 29.712C129.002 29.4773 129.338 29.36 129.754 29.36C130.17 29.36 130.506 29.4773 130.762 29.712C131.018 29.936 131.146 30.2293 131.146 30.592C131.146 30.944 131.018 31.2373 130.762 31.472C130.506 31.696 130.17 31.808 129.754 31.808C129.338 31.808 129.002 31.696 128.746 31.472C128.49 31.2373 128.362 30.944 128.362 30.592ZM130.874 33.136V42H128.618V33.136H130.874ZM141.251 37.232C141.251 37.456 141.224 37.712 141.171 38H134.675C134.707 38.7893 134.92 39.3707 135.315 39.744C135.709 40.1173 136.2 40.304 136.787 40.304C137.309 40.304 137.741 40.176 138.083 39.92C138.435 39.664 138.659 39.3173 138.755 38.88H141.139C141.021 39.4987 140.771 40.0533 140.387 40.544C140.003 41.0347 139.507 41.4187 138.899 41.696C138.301 41.9733 137.635 42.112 136.899 42.112C136.035 42.112 135.267 41.9307 134.595 41.568C133.923 41.1947 133.4 40.6667 133.027 39.984C132.653 39.3013 132.467 38.496 132.467 37.568C132.467 36.64 132.653 35.8347 133.027 35.152C133.4 34.4587 133.923 33.9307 134.595 33.568C135.267 33.2053 136.035 33.024 136.899 33.024C137.773 33.024 138.536 33.2053 139.187 33.568C139.848 33.9307 140.355 34.432 140.707 35.072C141.069 35.7013 141.251 36.4213 141.251 37.232ZM138.979 37.008C139.011 36.2827 138.819 35.7333 138.403 35.36C137.997 34.9867 137.496 34.8 136.899 34.8C136.291 34.8 135.779 34.9867 135.363 35.36C134.947 35.7333 134.717 36.2827 134.675 37.008H138.979ZM145.908 33.024C146.985 33.024 147.849 33.296 148.5 33.84C149.151 34.384 149.556 35.1093 149.716 36.016H147.604C147.519 35.5893 147.327 35.248 147.028 34.992C146.729 34.736 146.34 34.608 145.86 34.608C145.476 34.608 145.177 34.6987 144.964 34.88C144.751 35.0613 144.644 35.3067 144.644 35.616C144.644 35.8613 144.729 36.0587 144.9 36.208C145.071 36.3573 145.284 36.4747 145.54 36.56C145.796 36.6453 146.164 36.7467 146.644 36.864C147.316 37.0133 147.86 37.1733 148.276 37.344C148.703 37.504 149.065 37.7653 149.364 38.128C149.673 38.48 149.828 38.96 149.828 39.568C149.828 40.3253 149.529 40.9387 148.932 41.408C148.345 41.8773 147.551 42.112 146.548 42.112C145.396 42.112 144.473 41.856 143.78 41.344C143.087 40.8213 142.665 40.08 142.516 39.12H144.676C144.729 39.5573 144.921 39.904 145.252 40.16C145.583 40.4053 146.015 40.528 146.548 40.528C146.932 40.528 147.225 40.4373 147.428 40.256C147.631 40.064 147.732 39.8187 147.732 39.52C147.732 39.264 147.641 39.056 147.46 38.896C147.289 38.736 147.071 38.6133 146.804 38.528C146.548 38.4427 146.18 38.3413 145.7 38.224C145.039 38.0747 144.5 37.9253 144.084 37.776C143.679 37.616 143.327 37.3653 143.028 37.024C142.74 36.6827 142.596 36.2133 142.596 35.616C142.596 34.848 142.889 34.224 143.476 33.744C144.063 33.264 144.873 33.024 145.908 33.024Z" fill="#070F18"/>
<path fill-rule="evenodd" clip-rule="evenodd" d="M625.582 30.6855L623.868 38.6557H619.925L626.44 9.77073H631.11L637.239 38.6557H633.253L631.582 30.6855H625.582ZM631.11 27.4712L629.782 20.5703C629.396 18.5988 629.01 16.0287 628.711 13.9708H628.539C628.24 16.0709 627.81 18.7274 627.425 20.5703L626.054 27.4712H631.11ZM652.29 9V33.2992C652.29 34.8856 652.375 37.2 652.46 38.6564H648.989L648.732 36.1285H648.604C647.918 37.585 646.332 39 644.233 39C640.376 39 638.018 34.7992 638.018 28.329C638.018 20.9574 641.146 17.4859 644.447 17.4859C646.118 17.4859 647.447 18.2581 648.175 19.8431H648.261V9H652.29ZM648.26 25.7568C648.26 25.3718 648.26 24.9004 648.217 24.4704C648.003 22.5853 646.932 20.9567 645.475 20.9567C642.946 20.9567 642.089 24.4704 642.089 28.3283C642.089 32.6141 643.204 35.6135 645.346 35.6135C646.247 35.6135 647.446 35.1421 648.132 32.657C648.217 32.3141 648.26 31.7991 648.26 31.3291V25.7568ZM661.885 38.9993C657.729 38.9993 654.728 35.4421 654.728 28.2862C654.728 20.6996 658.285 17.4852 662.099 17.4852C666.213 17.4852 669.17 21.171 669.17 28.1997C669.17 36.4714 665.098 38.9993 661.928 38.9993H661.885ZM662.013 35.8285C664.498 35.8285 665.056 31.4141 665.056 28.2433C665.056 25.114 664.499 20.6574 661.928 20.6574C659.27 20.6574 658.757 25.114 658.757 28.2433C658.757 31.7141 659.357 35.8285 661.971 35.8285H662.013ZM671.599 9H675.626V20.1853H675.712C676.784 18.3002 678.241 17.4852 680.084 17.4852C683.64 17.4852 685.87 21.5139 685.87 27.8997C685.87 35.3563 682.827 38.9993 679.398 38.9993C677.341 38.9993 676.184 37.8843 675.283 36.0414H675.113L674.898 38.6557H671.427C671.513 37.2421 671.599 34.8849 671.599 33.2984V9ZM675.626 31.2841C675.626 31.757 675.669 32.2284 675.798 32.5706C676.44 35.0999 677.684 35.6135 678.497 35.6135C680.897 35.6135 681.797 32.4427 681.797 28.1569C681.797 24.1711 680.855 20.9567 678.454 20.9567C677.126 20.9567 676.054 22.5425 675.754 24.0425C675.669 24.4711 675.626 25.029 675.626 25.4568V31.2841H675.626ZM691.814 29.0562C691.857 34.4135 694.171 35.7414 696.613 35.7414C698.071 35.7414 699.313 35.3992 700.214 34.9699L700.814 37.8843C699.571 38.5271 697.685 38.8707 695.842 38.8707C690.614 38.8707 687.871 34.9278 687.871 28.499C687.871 21.6846 690.999 17.4845 695.328 17.4845C699.656 17.4845 701.671 21.6417 701.671 26.8711C701.671 27.899 701.627 28.5426 701.585 29.0991L691.814 29.0562ZM697.856 26.1854C697.899 22.4996 696.613 20.5288 695.028 20.5288C692.928 20.5288 691.985 23.5718 691.857 26.1854H697.856Z" fill="black"/>
<path fill-rule="evenodd" clip-rule="evenodd" d="M597.222 9.8479H609.256V38.6557L597.222 9.8479ZM588.744 9.8479H576.702V38.6557L588.744 9.8479ZM592.984 20.4646L600.651 38.6557H595.627L593.334 32.862H587.722L592.984 20.4646Z" fill="black"/>
<path fill-rule="evenodd" clip-rule="evenodd" d="M701.329 17.4317C701.449 17.4322 701.569 17.4567 701.68 17.5036C701.791 17.5506 701.892 17.6191 701.977 17.7052C702.061 17.7914 702.128 17.8934 702.173 18.0055C702.218 18.1175 702.24 18.2374 702.239 18.3581C702.239 18.881 701.835 19.2888 701.324 19.2888C700.818 19.2888 700.406 18.8817 700.406 18.3581C700.405 18.2369 700.428 18.1168 700.474 18.0046C700.52 17.8924 700.587 17.7904 700.673 17.7043C700.758 17.6183 700.86 17.5499 700.971 17.5031C701.083 17.4563 701.203 17.432 701.324 17.4317H701.329ZM701.324 17.5752C700.917 17.5752 700.583 17.926 700.583 18.3581C700.583 18.7988 700.917 19.1446 701.329 19.1446C701.74 19.1488 702.069 18.7988 702.069 18.3624C702.069 17.9259 701.74 17.5752 701.329 17.5752H701.324ZM701.151 18.8981H700.987V17.8638C701.074 17.8517 701.156 17.8388 701.28 17.8388C701.436 17.8388 701.539 17.8724 701.601 17.9174C701.663 17.9624 701.696 18.0324 701.696 18.1317C701.696 18.2674 701.605 18.3502 701.494 18.3831V18.391C701.584 18.4074 701.646 18.4902 701.666 18.6424C701.691 18.8031 701.716 18.8645 701.733 18.8981H701.56C701.535 18.8645 701.511 18.7703 701.49 18.6345C701.465 18.5024 701.399 18.4531 701.267 18.4531H701.152V18.8981H701.151ZM701.151 18.3252H701.271C701.406 18.3252 701.523 18.276 701.523 18.1481C701.523 18.0574 701.456 17.9667 701.271 17.9667C701.218 17.9667 701.18 17.971 701.151 17.9752V18.3252ZM610.842 9.8479C610.963 9.84846 611.082 9.87292 611.193 9.91987C611.305 9.96683 611.406 10.0354 611.49 10.1215C611.575 10.2076 611.641 10.3097 611.686 10.4217C611.731 10.5338 611.754 10.6536 611.752 10.7743C611.752 11.2972 611.349 11.7051 610.838 11.7051C610.331 11.7051 609.919 11.2979 609.919 10.7743C609.919 10.6532 609.942 10.533 609.988 10.4208C610.033 10.3087 610.101 10.2066 610.186 10.1206C610.272 10.0345 610.373 9.96612 610.485 9.91934C610.597 9.87255 610.717 9.84827 610.838 9.8479H610.842ZM610.838 9.99147C610.43 9.99147 610.096 10.3422 610.096 10.7743C610.096 11.2151 610.43 11.5608 610.842 11.5608C611.254 11.5651 611.584 11.2151 611.584 10.7786C611.584 10.3422 611.254 9.99147 610.842 9.99147H610.838ZM610.665 11.3144H610.5V10.2801C610.597 10.264 610.695 10.2559 610.793 10.2558C610.949 10.2558 611.052 10.2879 611.114 10.3336C611.176 10.3786 611.209 10.4493 611.209 10.5479C611.209 10.6836 611.118 10.7665 611.006 10.7994V10.8072C611.097 10.8236 611.159 10.9065 611.18 11.0594C611.204 11.2201 611.229 11.2815 611.246 11.3151H611.073C611.048 11.2815 611.023 11.1872 611.003 11.0515C610.978 10.9194 610.912 10.8701 610.78 10.8701H610.665V11.3144ZM610.665 10.7415H610.784C610.92 10.7415 611.036 10.6922 611.036 10.5643C611.036 10.4736 610.97 10.3829 610.784 10.3829C610.731 10.3829 610.694 10.3872 610.665 10.3915V10.7415Z" fill="black"/>
<g clip-path="url(#clip0_3_101)">
<path fill-rule="evenodd" clip-rule="evenodd" d="M790.168 32.6215L791.648 29.1834C793.246 30.3784 795.375 30.9997 797.476 30.9997C799.027 30.9997 800.008 30.4021 800.008 29.4963C799.985 26.9639 790.718 28.9462 790.647 22.5963C790.623 19.3715 793.488 16.8865 797.547 16.8865C799.961 16.8865 802.37 17.484 804.091 18.8451L802.707 22.3544C801.132 21.349 799.174 20.6329 797.31 20.6329C796.044 20.6329 795.209 21.2305 795.209 21.994C795.233 24.479 804.57 23.1179 804.665 29.1834C804.665 32.4793 801.872 34.7983 797.86 34.7983C794.92 34.7935 792.221 34.1012 790.168 32.6215ZM846.986 27.9409C846.246 29.2308 844.861 30.1129 843.258 30.1129C840.892 30.1129 838.986 28.2017 838.986 25.84C838.986 23.4783 840.897 21.5672 843.258 21.5672C844.857 21.5672 846.246 22.4492 846.986 23.7392L851.069 21.4723C849.542 18.7502 846.602 16.8865 843.258 16.8865C838.312 16.8865 834.3 20.8985 834.3 25.8448C834.3 30.791 838.312 34.803 843.258 34.803C846.625 34.803 849.542 32.963 851.069 30.2172L846.986 27.9409ZM806.719 9.45526H811.831V34.4616H806.719V9.45526ZM853.075 9.45526V34.4616H858.187V26.9592L864.253 34.4616H870.797L863.081 25.5507L870.223 17.2374H863.963L858.182 24.1375V9.45526H853.075Z" fill="black"/>
<path d="M827.021 27.9883C826.281 29.2071 824.754 30.1129 823.032 30.1129C820.666 30.1129 818.759 28.2017 818.759 25.84C818.759 23.4783 820.671 21.5672 823.032 21.5672C824.754 21.5672 826.281 22.5204 827.021 23.7629V27.9883ZM827.021 17.2422V19.2719C826.186 17.8634 824.109 16.8817 821.932 16.8817C817.441 16.8817 813.908 20.8463 813.908 25.8163C813.908 30.7863 817.441 34.7983 821.932 34.7983C824.104 34.7983 826.181 33.8214 827.021 32.4081V34.4379H832.133V17.2422H827.021Z" fill="black"/>
<path fill-rule="evenodd" clip-rule="evenodd" d="M758.57 27.9646C758.57 29.7098 757.161 31.1182 755.416 31.1182C753.671 31.1182 752.262 29.705 752.262 27.9646C752.262 26.2241 753.671 24.8109 755.416 24.8109H758.57V27.9646ZM760.144 27.9646C760.144 26.2194 761.553 24.8109 763.298 24.8109C765.043 24.8109 766.452 26.2194 766.452 27.9646V35.8464C766.452 37.5915 765.043 39 763.298 39C761.553 39 760.144 37.5915 760.144 35.8464V27.9646Z" fill="black"/>
<path fill-rule="evenodd" clip-rule="evenodd" d="M763.298 15.3073C761.553 15.3073 760.144 13.8988 760.144 12.1537C760.144 10.4085 761.553 9 763.298 9C765.043 9 766.452 10.4085 766.452 12.1537V15.3073H763.298ZM763.298 16.9055C765.043 16.9055 766.452 18.3139 766.452 20.0591C766.452 21.8043 765.043 23.2128 763.298 23.2128H755.392C753.647 23.2128 752.239 21.7996 752.239 20.0591C752.239 18.3187 753.647 16.9055 755.392 16.9055H763.298Z" fill="black"/>
<path fill-rule="evenodd" clip-rule="evenodd" d="M775.931 20.0591C775.931 18.3139 777.34 16.9055 779.085 16.9055C780.83 16.9055 782.239 18.3139 782.239 20.0591C782.239 21.8043 780.83 23.2128 779.085 23.2128H775.931V20.0591ZM774.357 20.0591C774.357 21.8043 772.949 23.2128 771.203 23.2128C769.458 23.2128 768.05 21.8043 768.05 20.0591V12.1537C768.05 10.4085 769.458 9 771.203 9C772.949 9 774.357 10.4085 774.357 12.1537V20.0591Z" fill="black"/>
<path fill-rule="evenodd" clip-rule="evenodd" d="M771.203 32.6927C772.949 32.6927 774.357 34.1012 774.357 35.8464C774.357 37.5915 772.949 39 771.203 39C769.458 39 768.05 37.5915 768.05 35.8464V32.6927H771.203ZM771.203 31.1182C769.458 31.1182 768.05 29.7098 768.05 27.9646C768.05 26.2194 769.458 24.8109 771.203 24.8109H779.109C780.854 24.8109 782.262 26.2194 782.262 27.9646C782.262 29.7098 780.854 31.1182 779.109 31.1182H771.203Z" fill="black"/>
</g>
<g clip-path="url(#clip1_3_101)">
<path d="M1082.14 9.00333H1082.96C1085.8 9.06501 1088.59 10.2062 1090.59 12.2264C1089.85 12.9821 1089.1 13.7069 1088.37 14.4625C1087.25 13.4447 1085.89 12.6582 1084.41 12.3806C1082.22 11.918 1079.86 12.3344 1078.02 13.5835C1076.02 14.8943 1074.66 17.115 1074.37 19.4899C1074.04 21.834 1074.71 24.3014 1076.23 26.1211C1077.7 27.8946 1079.94 29.0049 1082.25 29.082C1084.41 29.2054 1086.66 28.5423 1088.23 27.031C1089.47 25.9669 1090.04 24.3476 1090.22 22.7747C1087.66 22.7747 1085.1 22.7901 1082.54 22.7747V19.5978H1093.32C1093.88 23.006 1093.07 26.8459 1090.48 29.2825C1088.76 31.0097 1086.37 32.0275 1083.93 32.228C1081.57 32.4593 1079.13 32.0121 1077.04 30.8709C1074.52 29.5292 1072.52 27.2623 1071.53 24.5944C1070.61 22.1424 1070.59 19.3665 1071.45 16.8991C1072.24 14.6476 1073.75 12.6582 1075.69 11.2703C1077.56 9.89777 1079.83 9.14212 1082.14 9.00333Z" fill="black"/>
<path d="M1143.98 9.80457H1147.28V31.8264C1146.19 31.8264 1145.08 31.8418 1143.98 31.811C1144 24.4858 1143.98 17.1452 1143.98 9.80457Z" fill="black"/>
<path d="M1100.66 17.4382C1102.7 17.0527 1104.9 17.4845 1106.58 18.7027C1108.11 19.7822 1109.17 21.4786 1109.5 23.3292C1109.91 25.4727 1109.39 27.8168 1108 29.5132C1106.51 31.41 1104.05 32.4278 1101.66 32.2736C1099.47 32.1502 1097.35 31.0553 1096.05 29.2664C1094.59 27.2925 1094.23 24.5783 1095.03 22.2651C1095.83 19.7822 1098.1 17.8854 1100.66 17.4382ZM1101.12 20.3683C1100.29 20.5842 1099.52 21.0622 1098.97 21.7408C1097.47 23.5297 1097.56 26.4443 1099.21 28.1098C1100.15 29.0659 1101.57 29.5132 1102.88 29.251C1104.1 29.0351 1105.16 28.2178 1105.75 27.1383C1106.77 25.3031 1106.48 22.774 1104.92 21.3398C1103.92 20.4145 1102.45 20.029 1101.12 20.3683Z" fill="black"/>
<path d="M1117.01 17.4382C1119.34 16.991 1121.88 17.6387 1123.62 19.2733C1126.46 21.8179 1126.77 26.5831 1124.35 29.5132C1122.88 31.3637 1120.51 32.3816 1118.17 32.2736C1115.93 32.2119 1113.72 31.1016 1112.4 29.2664C1110.9 27.2462 1110.58 24.4704 1111.43 22.1109C1112.27 19.7051 1114.49 17.87 1117.01 17.4382ZM1117.47 20.3683C1116.64 20.5842 1115.87 21.0622 1115.31 21.7253C1113.83 23.4834 1113.89 26.3518 1115.48 28.0327C1116.42 29.0351 1117.89 29.5286 1119.24 29.251C1120.45 29.0197 1121.53 28.2178 1122.11 27.1383C1123.12 25.2877 1122.82 22.7586 1121.25 21.3244C1120.25 20.3991 1118.78 20.029 1117.47 20.3683Z" fill="black"/>
<path d="M1130.87 18.3326C1132.65 17.2223 1135.01 16.9138 1136.92 17.87C1137.52 18.1321 1138.01 18.5794 1138.49 19.0266C1138.51 18.6102 1138.49 18.1784 1138.51 17.7466C1139.54 17.762 1140.57 17.7466 1141.62 17.762V31.3637C1141.61 33.4148 1141.08 35.5892 1139.6 37.0851C1137.98 38.7352 1135.5 39.2441 1133.26 38.9048C1130.87 38.5501 1128.79 36.8075 1127.87 34.6022C1128.79 34.155 1129.76 33.8003 1130.72 33.3839C1131.26 34.6485 1132.35 35.728 1133.73 35.9747C1135.1 36.2215 1136.69 35.8822 1137.58 34.741C1138.54 33.569 1138.54 31.9652 1138.49 30.531C1137.78 31.2249 1136.96 31.8418 1135.98 32.0731C1133.83 32.6746 1131.47 31.9343 1129.82 30.4847C1128.16 29.0351 1127.17 26.799 1127.26 24.5783C1127.31 22.0646 1128.73 19.6434 1130.87 18.3326ZM1134.06 20.3066C1133.12 20.4608 1132.24 20.9851 1131.64 21.7099C1130.19 23.4371 1130.19 26.1975 1131.66 27.8939C1132.49 28.8963 1133.83 29.4515 1135.13 29.3127C1136.35 29.1893 1137.47 28.4182 1138.07 27.3542C1139.09 25.5498 1138.92 23.0978 1137.55 21.5249C1136.7 20.5533 1135.34 20.0752 1134.06 20.3066Z" fill="black"/>
<path d="M1151.24 19.1191C1153.09 17.3919 1155.95 16.8059 1158.32 17.7158C1160.57 18.564 1162.01 20.7076 1162.73 22.9128C1159.39 24.3007 1156.06 25.6733 1152.71 27.0612C1153.17 27.9402 1153.88 28.7421 1154.84 29.066C1156.18 29.544 1157.78 29.3744 1158.91 28.48C1159.36 28.1407 1159.71 27.6935 1160.05 27.2617C1160.9 27.8323 1161.75 28.3874 1162.59 28.958C1161.39 30.7623 1159.37 32.0269 1157.2 32.2274C1154.79 32.5204 1152.23 31.5951 1150.67 29.7137C1148.11 26.7528 1148.36 21.7871 1151.24 19.1191ZM1152.89 21.9721C1152.37 22.7278 1152.15 23.653 1152.17 24.5629C1154.41 23.6376 1156.64 22.7123 1158.88 21.7716C1158.51 20.908 1157.61 20.3837 1156.7 20.2449C1155.24 19.9827 1153.71 20.7692 1152.89 21.9721Z" fill="black"/>
</g>
<g clip-path="url(#clip2_3_101)">
<path d="M935.797 9.00002C927.513 9.00002 920.797 15.7157 920.797 23.9997C920.797 32.2847 927.513 39 935.797 39C944.081 39 950.797 32.2847 950.797 23.9997C950.797 15.7162 944.082 9.00073 935.797 9.00073L935.797 9.00002ZM942.676 30.6339C942.406 31.0758 941.831 31.2143 941.39 30.945C937.868 28.7922 933.434 28.3059 928.213 29.4987C927.71 29.614 927.208 29.2986 927.094 28.7956C926.979 28.2925 927.293 27.791 927.797 27.6763C933.511 26.37 938.412 26.9323 942.366 29.3482C942.806 29.6187 942.946 30.1937 942.676 30.6343L942.676 30.6339ZM944.512 26.5502C944.173 27.1006 943.453 27.2733 942.903 26.9353C938.872 24.4574 932.725 23.7397 927.956 25.1873C927.338 25.3741 926.685 25.0256 926.497 24.4081C926.311 23.7896 926.659 23.1376 927.277 22.9496C932.724 21.2967 939.496 22.0973 944.127 24.9426C944.676 25.2812 944.85 26.0012 944.512 26.5504L944.512 26.5502ZM944.669 22.2972C939.834 19.4258 931.859 19.1618 927.243 20.5626C926.502 20.7874 925.718 20.369 925.494 19.6278C925.269 18.8863 925.687 18.103 926.429 17.8776C931.727 16.2692 940.535 16.5799 946.101 19.8841C946.768 20.2798 946.987 21.1408 946.592 21.8066C946.198 22.4733 945.334 22.6931 944.67 22.2972H944.669ZM961.607 22.8475C959.017 22.2299 958.556 21.7964 958.556 20.8856C958.556 20.0251 959.366 19.446 960.571 19.446C961.739 19.446 962.897 19.8858 964.111 20.791C964.148 20.8184 964.194 20.8293 964.239 20.8222C964.284 20.8154 964.324 20.7905 964.351 20.753L965.615 18.9705C965.667 18.897 965.653 18.7958 965.583 18.7397C964.138 17.5803 962.511 17.0166 960.609 17.0166C957.813 17.0166 955.86 18.6948 955.86 21.0959C955.86 23.6707 957.545 24.5824 960.456 25.2862C962.935 25.857 963.353 26.3353 963.353 27.1902C963.353 28.1376 962.507 28.7265 961.146 28.7265C959.634 28.7265 958.401 28.2173 957.022 27.0227C956.987 26.9932 956.941 26.9797 956.897 26.9822C956.852 26.986 956.81 27.0071 956.781 27.0421L955.363 28.7295C955.303 28.7996 955.311 28.9042 955.38 28.9647C956.985 30.3975 958.958 31.1543 961.089 31.1543C964.102 31.1543 966.049 29.5078 966.049 26.9595C966.054 24.8083 964.767 23.6172 961.612 22.8498L961.607 22.8475ZM972.866 20.2932C971.56 20.2932 970.489 20.8077 969.605 21.8618V20.6753C969.605 20.5816 969.529 20.5053 969.436 20.5053H967.117C967.023 20.5053 966.947 20.5816 966.947 20.6753V33.8588C966.947 33.9524 967.023 34.0287 967.117 34.0287H969.436C969.529 34.0287 969.605 33.9524 969.605 33.8588V29.6973C970.489 30.6889 971.561 31.1734 972.866 31.1734C975.293 31.1734 977.75 29.3052 977.75 25.734C977.754 22.1618 975.296 20.2931 972.869 20.2931L972.866 20.2932ZM975.053 25.734C975.053 27.5526 973.933 28.8216 972.329 28.8216C970.743 28.8216 969.547 27.4949 969.547 25.734C969.547 23.9732 970.743 22.6463 972.329 22.6463C973.907 22.6461 975.054 23.9444 975.054 25.7338L975.053 25.734ZM984.047 20.2932C980.921 20.2932 978.473 22.6999 978.473 25.7728C978.473 28.8123 980.905 31.1937 984.009 31.1937C987.145 31.1937 989.601 28.7951 989.601 25.734C989.601 22.6834 987.162 20.2936 984.047 20.2936L984.047 20.2932ZM984.047 28.8397C982.384 28.8397 981.131 27.504 981.131 25.7331C981.131 23.9546 982.341 22.664 984.009 22.664C985.682 22.664 986.943 23.9997 986.943 25.7719C986.943 27.55 985.725 28.8397 984.047 28.8397H984.047ZM996.275 20.5053H993.723V17.8963C993.723 17.8028 993.648 17.7265 993.554 17.7265H991.235C991.142 17.7265 991.065 17.8028 991.065 17.8963V20.5053H989.95C989.857 20.5053 989.782 20.5816 989.782 20.6753V22.6684C989.782 22.7619 989.857 22.8383 989.95 22.8383H991.065V27.9953C991.065 30.0794 992.103 31.136 994.148 31.136C994.98 31.136 995.67 30.9642 996.321 30.5954C996.374 30.5659 996.406 30.5089 996.406 30.4484V28.5504C996.406 28.4918 996.376 28.4365 996.326 28.4059C996.275 28.3742 996.212 28.3726 996.161 28.3982C995.714 28.623 995.282 28.7267 994.799 28.7267C994.055 28.7267 993.723 28.3889 993.723 27.6317V22.8392H996.275C996.369 22.8392 996.444 22.7629 996.444 22.6693V20.6764C996.448 20.5827 996.373 20.5064 996.278 20.5064L996.275 20.5053ZM1005.17 20.5155V20.1951C1005.17 19.2524 1005.53 18.832 1006.34 18.832C1006.82 18.832 1007.21 18.928 1007.65 19.0731C1007.7 19.0899 1007.75 19.0815 1007.8 19.0494C1007.84 19.0174 1007.87 18.966 1007.87 18.9115V16.9573C1007.87 16.8826 1007.82 16.8165 1007.75 16.7945C1007.29 16.6578 1006.7 16.5176 1005.82 16.5176C1003.68 16.5176 1002.55 17.7238 1002.55 20.0045V20.4953H1001.43C1001.34 20.4953 1001.26 20.5716 1001.26 20.6651V22.6683C1001.26 22.7618 1001.34 22.8383 1001.43 22.8383H1002.55V30.7928C1002.55 30.8865 1002.62 30.9628 1002.72 30.9628H1005.04C1005.13 30.9628 1005.21 30.8865 1005.21 30.7928V22.8389H1007.37L1010.69 30.7914C1010.31 31.627 1009.94 31.7932 1009.43 31.7932C1009.03 31.7932 1008.6 31.6712 1008.16 31.4305C1008.11 31.4077 1008.07 31.4039 1008.02 31.4177C1007.98 31.4333 1007.94 31.4663 1007.92 31.5093L1007.13 33.2336C1007.1 33.3151 1007.13 33.4108 1007.21 33.4531C1008.03 33.8975 1008.77 34.0871 1009.68 34.0871C1011.4 34.0871 1012.34 33.2895 1013.18 31.1437L1017.2 20.7477C1017.22 20.6954 1017.21 20.6362 1017.18 20.5899C1017.15 20.5438 1017.1 20.5161 1017.04 20.5161H1014.63C1014.56 20.5161 1014.49 20.5621 1014.47 20.63L1012 27.6941L1009.29 20.6253C1009.26 20.5596 1009.2 20.5161 1009.13 20.5161H1005.17L1005.17 20.5155ZM1000.01 20.5053H997.693C997.599 20.5053 997.523 20.5816 997.523 20.6753V30.7928C997.523 30.8865 997.599 30.9628 997.693 30.9628H1000.01C1000.11 30.9628 1000.18 30.8865 1000.18 30.7928V20.676C1000.18 20.6537 1000.18 20.6315 1000.17 20.6109C1000.16 20.5902 1000.15 20.5714 1000.13 20.5556C1000.12 20.5398 1000.1 20.5273 1000.08 20.5188C1000.06 20.5103 1000.03 20.506 1000.01 20.506L1000.01 20.5053ZM998.865 15.8986C997.947 15.8986 997.201 16.6423 997.201 17.561C997.201 18.4802 997.947 19.2248 998.865 19.2248C999.784 19.2248 1000.53 18.4802 1000.53 17.561C1000.53 16.6425 999.783 15.8986 998.866 15.8986H998.865ZM1019.18 23.7583C1018.26 23.7583 1017.55 23.0212 1017.55 22.1262C1017.55 21.2311 1018.27 20.4856 1019.19 20.4856C1020.11 20.4856 1020.82 21.2225 1020.82 22.1168C1020.82 23.0119 1020.1 23.7583 1019.18 23.7583H1019.18ZM1019.19 20.6479C1018.35 20.6479 1017.72 21.3124 1017.72 22.1262C1017.72 22.9395 1018.35 23.5951 1019.18 23.5951C1020.02 23.5951 1020.65 22.9311 1020.65 22.1168C1020.65 21.3035 1020.02 20.6479 1019.19 20.6479H1019.19ZM1019.55 22.2847L1020.01 22.9309H1019.62L1019.21 22.3381H1018.85V22.9309H1018.53V21.2179H1019.29C1019.69 21.2179 1019.95 21.4215 1019.95 21.7643C1019.95 22.0452 1019.79 22.2168 1019.55 22.2847H1019.55V22.2847ZM1019.28 21.5118H1018.85V22.0536H1019.28C1019.49 22.0536 1019.61 21.9499 1019.61 21.7824C1019.61 21.6062 1019.49 21.5118 1019.28 21.5118H1019.28V21.5118Z" fill="black"/>
</g>
<g clip-path="url(#clip3_3_101)">
<path d="M459.399 24.9409C459.363 21.1448 462.501 19.3209 462.642 19.234C460.876 16.6538 458.133 16.2992 457.156 16.2593C454.821 16.0205 452.6 17.6345 451.413 17.6345C450.226 17.6345 448.398 16.2919 446.462 16.3317C443.914 16.3679 441.566 17.8118 440.252 20.0917C437.61 24.6731 439.579 31.4765 442.159 35.2003C443.422 37.0205 444.92 39.0724 446.896 38.9964C448.8 38.9204 449.516 37.766 451.811 37.766C454.105 37.766 454.753 38.9964 456.761 38.9602C458.806 38.9204 460.101 37.1001 461.353 35.2726C462.794 33.1556 463.391 31.111 463.427 31.0024C463.38 30.9843 459.443 29.4753 459.399 24.9409Z" fill="black"/>
<path d="M455.625 13.7913C456.674 12.5211 457.38 10.7587 457.188 9C455.679 9.06152 453.852 10.006 452.77 11.2762C451.8 12.3981 450.949 14.193 451.181 15.9156C452.856 16.0458 454.579 15.0579 455.625 13.7913ZM472.633 28.6719L470.896 33.9373H468.663L474.349 17.2039H476.954L482.661 33.9373H480.352L478.565 28.6719H472.633ZM478.119 26.9819L476.484 22.1653C476.111 21.0724 475.865 20.0808 475.615 19.111H475.568C475.318 20.1025 475.047 21.1194 474.725 22.1399L473.089 26.9783L478.119 26.9819ZM484.355 25.842C484.355 24.304 484.308 23.0591 484.253 21.9192H486.215L486.316 23.9819H486.363C487.257 22.5163 488.672 21.6478 490.633 21.6478C493.539 21.6478 495.721 24.1049 495.721 27.7563C495.721 32.0772 493.09 34.2087 490.261 34.2087C488.672 34.2087 487.282 33.5139 486.562 32.3233H486.515V38.8516H484.355V25.842ZM486.511 29.0446C486.511 29.3703 486.558 29.6635 486.613 29.9385C487.011 31.4511 488.324 32.497 489.891 32.497C492.2 32.497 493.543 30.6116 493.543 27.854C493.543 25.4439 492.276 23.3884 489.967 23.3884C488.48 23.3884 487.09 24.456 486.663 26.0953C486.587 26.3667 486.515 26.6924 486.515 26.9891L486.511 29.0446ZM497.979 25.842C497.979 24.304 497.932 23.0591 497.878 21.9192H499.84L499.941 23.9819H499.988C500.882 22.5163 502.297 21.6478 504.258 21.6478C507.164 21.6478 509.346 24.1049 509.346 27.7563C509.346 32.0772 506.715 34.2087 503.885 34.2087C502.297 34.2087 500.907 33.5139 500.187 32.3233H500.14V38.8516H497.979V25.842ZM500.14 29.0446C500.14 29.3703 500.187 29.6635 500.241 29.9385C500.639 31.4511 501.953 32.497 503.52 32.497C505.829 32.497 507.171 30.6116 507.171 27.854C507.171 25.4439 505.905 23.3884 503.596 23.3884C502.109 23.3884 500.719 24.456 500.292 26.0953C500.216 26.3667 500.144 26.6924 500.144 26.9891L500.14 29.0446ZM511.608 16.31H513.794V33.9337H511.608V16.31ZM518.187 28.3245C518.234 31.2774 520.123 32.497 522.305 32.497C523.868 32.497 524.813 32.2256 525.631 31.8782L526.004 33.4415C525.236 33.7889 523.919 34.187 522.008 34.187C518.31 34.187 516.099 31.7551 516.099 28.1291C516.099 24.503 518.234 21.6478 521.733 21.6478C525.656 21.6478 526.698 25.0965 526.698 27.3076C526.698 27.7563 526.651 28.1001 526.622 28.3245H518.187ZM524.592 26.7612C524.618 25.3715 524.02 23.2111 521.563 23.2111C519.352 23.2111 518.386 25.2485 518.212 26.7612H524.592Z" fill="black"/>
</g>
<defs>
<clipPath id="clip0_3_101">
<rect width="118.558" height="30" fill="white" transform="translate(752.239 9)"/>
</clipPath>
<clipPath id="clip1_3_101">
<rect width="91.9118" height="30" fill="white" transform="translate(1070.82 9)"/>
</clipPath>
<clipPath id="clip2_3_101">
<rect width="100.024" height="30" fill="white" transform="translate(920.797 9)"/>
</clipPath>
<clipPath id="clip3_3_101">
<rect width="87.7021" height="30" fill="white" transform="translate(439 9)"/>
</clipPath>
</defs>
</svg>
